<svg xmlns="http://www.w3.org/2000/svg" viewBox="0 0 64 64" width="64" height="64">
  <defs>
    <linearGradient id="waveGradient" x1="0%" y1="0%" x2="100%" y2="100%">
      <stop offset="0%" style="stop-color:#C8102E"/>
      <stop offset="100%" style="stop-color:#0077B6"/>
    </linearGradient>
  </defs>
  
  <!-- Background circle -->
  <circle cx="32" cy="32" r="30" fill="#F0F7FA"/>
  
  <!-- Three wave-X marks arranged horizontally -->
  <!-- Left wave-X -->
  <g transform="translate(10, 20)">
    <path d="M2 12 Q7 8 12 12 Q7 16 2 12" fill="none" stroke="#C8102E" stroke-width="3" stroke-linecap="round"/>
    <path d="M2 12 Q7 16 12 12 Q7 8 2 12" fill="none" stroke="#0077B6" stroke-width="3" stroke-linecap="round" opacity="0.8"/>
  </g>
  
  <!-- Center wave-X (larger) -->
  <g transform="translate(24, 18)">
    <path d="M2 14 Q9 8 16 14 Q9 20 2 14" fill="none" stroke="#C8102E" stroke-width="3.5" stroke-linecap="round"/>
    <path d="M2 14 Q9 20 16 14 Q9 8 2 14" fill="none" stroke="#0077B6" stroke-width="3.5" stroke-linecap="round" opacity="0.8"/>
  </g>
  
  <!-- Right wave-X -->
  <g transform="translate(42, 20)">
    <path d="M2 12 Q7 8 12 12 Q7 16 2 12" fill="none" stroke="#C8102E" stroke-width="3" stroke-linecap="round"/>
    <path d="M2 12 Q7 16 12 12 Q7 8 2 12" fill="none" stroke="#0077B6" stroke-width="3" stroke-linecap="round" opacity="0.8"/>
  </g>
  
  <!-- Water waves at bottom -->
  <path d="M8 48 Q16 44 24 48 Q32 52 40 48 Q48 44 56 48" fill="none" stroke="#06B6D4" stroke-width="2.5" stroke-linecap="round" opacity="0.6"/>
  <path d="M4 52 Q12 48 20 52 Q28 56 36 52 Q44 48 52 52 Q60 56 64 52" fill="none" stroke="#06B6D4" stroke-width="2" stroke-linecap="round" opacity="0.4"/>
</svg>


